<?xml version="1.0" encoding="utf-8"?>
<!-- Generator: Adobe Illustrator 28.7.1, SVG Export Plug-In . SVG Version: 9.03 Build 54978)  -->
<svg version="1.1" id="ElternMail_Berlin_Logo" xmlns="http://www.w3.org/2000/svg" xmlns:xlink="http://www.w3.org/1999/xlink"
	 x="0px" y="0px" viewBox="0 0 151.7 63.3" style="enable-background:new 0 0 151.7 63.3;" xml:space="preserve">
<style type="text/css">
	.st0{fill:none;}
	.st1{fill:#002856;}
	.st2{fill:#4F8FCC;}
	.st3{fill:#F39300;}
	.st4{fill:#F39200;}
</style>
<g>
	<rect class="st0" width="151.71617" height="63.20464"/>
	<g>
		<g>
			<g>
				<path class="st1" d="M60.24894,15.84182H66.828c0.12675,0,0.2174,0.09064,0.2174,0.21754v1.66739
					c0,0.12676-0.09064,0.2174-0.2174,0.2174h-4.47673c-0.05439,0-0.10863,0.03626-0.10863,0.10877v2.91796
					c0,0.07251,0.03625,0.10877,0.10863,0.10877H66.828c0.12675,0,0.2174,0.09064,0.2174,0.2174v1.6494
					c0,0.12675-0.09064,0.2174-0.2174,0.2174h-4.47673c-0.05439,0-0.10863,0.03626-0.10863,0.10877v3.04486
					c0,0.05438,0.03625,0.10877,0.10863,0.10877H66.828c0.12675,0,0.2174,0.0905,0.2174,0.2174v1.66739
					c0,0.1269-0.09064,0.21754-0.2174,0.21754h-6.57906c-0.1269,0-0.21754-0.09064-0.21754-0.21754V16.05937
					C60.0314,15.93247,60.12204,15.84182,60.24894,15.84182z"/>
				<path class="st1" d="M72.26567,26.8612v1.54049c0,0.1269-0.09064,0.21754-0.21754,0.21754h-0.30804
					c-1.52251,0-2.5918-0.54371-2.5918-2.338V15.62428c0-0.1269,0.09064-0.2174,0.21754-0.2174h1.72178
					c0.12689,0,0.21739,0.0905,0.21739,0.2174v10.40315c0,0.3807,0.16316,0.61622,0.57997,0.61622h0.16315
					C72.17503,26.64366,72.26567,26.7343,72.26567,26.8612z"/>
				<path class="st1" d="M74.64021,16.87486l1.72178-0.63435c0.14503-0.05438,0.25365,0.01813,0.25365,0.18129v3.37103
					c0,0.07251,0.03625,0.10877,0.10877,0.10877h0.83376c0.12675,0,0.2174,0.09064,0.2174,0.2174v1.43186
					c0,0.1269-0.09064,0.21754-0.2174,0.21754h-0.83376c-0.07252,0-0.10877,0.03626-0.10877,0.10863v6.43402
					c0,0.1269-0.09064,0.21754-0.2174,0.21754h-1.72177c-0.1269,0-0.21754-0.09064-0.21754-0.21754v-6.43402
					c0-0.05424-0.03625-0.10863-0.10877-0.10863h-0.83362c-0.1269,0-0.21754-0.09064-0.21754-0.21754v-1.43186
					c0-0.12675,0.09064-0.2174,0.21754-0.2174h0.83362c0.07252,0,0.10877-0.03626,0.10877-0.10877v-2.68229
					C74.45892,16.98363,74.51331,16.92924,74.64021,16.87486z"/>
				<path class="st1" d="M78.82731,24.19689c0-2.71855,1.88493-4.5491,4.2048-4.5491c2.48288,0,4.25904,1.90306,4.25904,4.42234
					c0,0.12676-0.01813,0.32617-0.03625,0.48933c-0.01813,0.1269-0.0905,0.19927-0.19927,0.19927h-5.8178
					c-0.1269,0-0.19941,0.07251-0.16315,0.2538c0.2538,1.17806,1.12368,1.83054,2.2111,1.83054
					c0.83377,0,1.54063-0.32631,2.08434-0.87002c0.10863-0.10863,0.2174-0.0905,0.30804,0.03626l0.92441,1.14181
					c0.0905,0.10877,0.07236,0.21754-0.03626,0.32631c-0.97879,0.86988-2.15685,1.30496-3.28053,1.30496
					C80.78475,28.78239,78.82731,27.04249,78.82731,24.19689z M84.91689,22.96459c-0.27178-0.87002-0.92426-1.37748-1.88479-1.37748
					c-0.90628,0-1.59502,0.54371-1.8668,1.39561c-0.05439,0.14488-0.01813,0.2174,0.16315,0.2174h3.46168
					C84.93502,23.20012,84.97128,23.1276,84.91689,22.96459z"/>
				<path class="st1" d="M93.63496,19.6478c0.1269,0.01813,0.18129,0.10877,0.18129,0.23567v1.70365
					c0,0.14503-0.09064,0.21754-0.23567,0.19941c-0.19942-0.03626-0.39868-0.05439-0.56184-0.05439
					c-0.70687,0-1.26871,0.27178-1.66739,0.65248c-0.14503,0.12676-0.19942,0.27178-0.19942,0.45307v5.47336
					c0,0.1269-0.09064,0.21754-0.2174,0.21754h-1.72177c-0.1269,0-0.21754-0.09064-0.21754-0.21754v-8.19206
					c0-0.12675,0.09064-0.2174,0.21754-0.2174h1.63113c0.1269,0,0.2174,0.09064,0.2174,0.2174v0.39883
					c0,0.1269,0.07251,0.16316,0.14503,0.09064c0.48932-0.52558,1.23244-0.97879,2.17484-0.97879
					C93.45367,19.62967,93.54432,19.62967,93.63496,19.6478z"/>
				<path class="st1" d="M97.16943,28.52859h-1.72177c-0.1269,0-0.21754-0.09064-0.21754-0.21754v-8.19206
					c0-0.12675,0.09064-0.2174,0.21754-0.2174h1.63113c0.1269,0,0.2174,0.09064,0.2174,0.2174v0.34444
					c0,0.09064,0.05439,0.1269,0.1269,0.07251c0.52558-0.50745,1.19619-0.90628,2.06622-0.90628
					c1.83054,0,2.84545,1.30496,2.84545,3.18989v5.49149c0,0.1269-0.09064,0.21754-0.21754,0.21754h-1.72177
					c-0.1269,0-0.21754-0.09064-0.21754-0.21754v-5.20158c0-0.97865-0.47119-1.54049-1.34107-1.54049
					c-0.57997,0-1.01491,0.3443-1.30496,0.76125c-0.10877,0.14488-0.14503,0.27178-0.14503,0.45307v5.52775
					C97.38683,28.43795,97.29619,28.52859,97.16943,28.52859z"/>
				<path class="st1" d="M104.63678,28.32918V16.04124c0-0.10877,0.07251-0.19941,0.19941-0.19941h2.17484
					c0.10877,0,0.19942,0.05439,0.2538,0.14503l2.9361,5.00216c0.09064,0.14503,0.1269,0.14503,0.2174,0l2.93609-5.00216
					c0.05439-0.09064,0.14503-0.14503,0.2538-0.14503h2.17484c0.1269,0,0.19941,0.09064,0.19941,0.19941v12.28794
					c0,0.10877-0.07251,0.19941-0.19941,0.19941h-1.81242c-0.12675,0-0.19927-0.09064-0.19927-0.19941v-8.53635
					c0-0.10877-0.09064-0.16316-0.16315-0.03626l-3.02673,4.85728c-0.16315,0.25366-0.38055,0.25366-0.54371,0l-3.02674-4.85728
					c-0.07251-0.1269-0.16301-0.07251-0.16301,0.03626v8.53635c0,0.10877-0.07252,0.19941-0.19942,0.19941h-1.81242
					C104.70929,28.52859,104.63678,28.43795,104.63678,28.32918z"/>
				<path class="st1" d="M117.83215,24.21502c0-2.73668,1.77615-4.58535,4.15041-4.58535c1.0693,0,1.88493,0.36257,2.4649,0.94254
					c0.07237,0.07251,0.12676,0.03626,0.12676-0.05438v-0.39883c0-0.12675,0.09064-0.2174,0.21754-0.2174h1.61301
					c0.1269,0,0.21754,0.09064,0.21754,0.2174v8.19206c0,0.1269-0.09064,0.21754-0.21754,0.21754h-1.61301
					c-0.1269,0-0.21754-0.09064-0.21754-0.21754v-0.39868c0-0.09064-0.05439-0.1269-0.12676-0.05438
					c-0.57996,0.57997-1.3956,0.94254-2.4649,0.94254C119.6083,28.80052,117.83215,26.95185,117.83215,24.21502z
					 M124.37494,25.82817c0.07251-0.1269,0.0905-0.19941,0.0905-0.30818V22.9102c0-0.10877-0.01799-0.18129-0.0905-0.30818
					c-0.34444-0.5981-1.05131-1.03304-1.93932-1.03304c-1.50423,0-2.41051,1.08742-2.41051,2.64604
					c0,1.55876,0.90627,2.64618,2.41051,2.64618C123.32363,26.8612,124.03049,26.42626,124.37494,25.82817z"/>
				<path class="st1" d="M128.72519,17.03802c0-0.72499,0.61623-1.34122,1.34122-1.34122c0.70688,0,1.32309,0.63435,1.32309,1.34122
					c0,0.74312-0.61621,1.35921-1.32309,1.35921C129.34142,18.39722,128.72519,17.78114,128.72519,17.03802z M128.97899,28.31105
					v-8.19206c0-0.12675,0.07251-0.2174,0.19942-0.2174h1.7399c0.12675,0,0.21741,0.09064,0.21741,0.2174v8.19206
					c0,0.1269-0.09065,0.21754-0.21741,0.21754h-1.7399C129.0515,28.52859,128.97899,28.43795,128.97899,28.31105z"/>
				<path class="st1" d="M136.53683,26.8612v1.54049c0,0.1269-0.09064,0.21754-0.21754,0.21754h-0.30803
					c-1.52251,0-2.5918-0.54371-2.5918-2.338V15.62428c0-0.1269,0.09064-0.2174,0.21753-0.2174h1.72179
					c0.12689,0,0.21739,0.0905,0.21739,0.2174v10.40315c0,0.3807,0.16316,0.61622,0.57997,0.61622h0.16315
					C136.4462,26.64366,136.53683,26.7343,136.53683,26.8612z"/>
			</g>
			<g>
				<path class="st1" d="M67.50378,38.12893c0,1.18177-0.63634,2.18169-1.54533,2.70892c-0.1273,0.07274-0.10912,0.14548,0,0.20004
					c1.09084,0.54542,1.81812,1.63626,1.81812,2.96352c0,1.9636-1.32726,3.49076-3.89084,3.49076h-3.67247
					c-0.10911,0-0.18185-0.07274-0.18185-0.18185v-12.363c0-0.10911,0.07274-0.18185,0.18185-0.18185h3.6361
					C66.2129,34.76547,67.50378,36.23807,67.50378,38.12893z M61.37684,36.14729v4.12696c0,0.05455,0.03637,0.09093,0.09079,0.09093
					h2.2182c1.5999,0,2.4181-0.81806,2.4181-2.14532s-0.81821-2.1635-2.4181-2.1635h-2.2182
					C61.41321,36.05636,61.37684,36.09273,61.37684,36.14729z M61.37684,41.74699v4.36337
					c0,0.05456,0.03637,0.09093,0.09079,0.09093h2.29094c1.74538,0,2.618-0.87262,2.618-2.27262
					c0-1.39985-0.87262-2.27261-2.618-2.27261h-2.29094C61.41321,41.65606,61.37684,41.69243,61.37684,41.74699z"/>
				<path class="st1" d="M69.66814,43.27414c0-2.67255,1.78175-4.39975,4.10892-4.39975s4.07256,1.76357,4.07256,4.19985
					c0,0.12716,0,0.27264-0.01819,0.41812c-0.01818,0.09093-0.07274,0.14548-0.18185,0.14548h-6.41791
					c-0.1273,0-0.20004,0.05456-0.16367,0.23627c0.20004,1.58186,1.27271,2.61814,2.89079,2.61814
					c1.00006,0,1.79993-0.45464,2.38173-1.05447c0.1273-0.1273,0.21822-0.16367,0.30915-0.07274l0.59998,0.65454
					c0.0726,0.0726,0.0726,0.16352,0,0.23627c-0.85458,0.89095-1.99997,1.43637-3.29086,1.43637
					C71.44989,47.69222,69.66814,45.94684,69.66814,43.27414z M76.43143,42.36515c-0.23641-1.36363-1.25452-2.2908-2.65437-2.2908
					c-1.38181,0-2.45447,0.96355-2.67269,2.30899c-0.03638,0.14548,0,0.1999,0.16367,0.1999h4.99973
					C76.41325,42.58324,76.4678,42.52882,76.43143,42.36515z"/>
				<path class="st1" d="M83.86802,38.89258c0.10911,0,0.16367,0.07274,0.16367,0.18171v0.96369
					c0,0.1273-0.07274,0.18171-0.20004,0.14548c-0.14548-0.01818-0.30915-0.03637-0.43631-0.03637
					c-0.9455,0-1.58185,0.45449-1.99997,1.07266c-0.10912,0.16352-0.1273,0.29082-0.1273,0.45449v5.63607
					c0,0.10911-0.07274,0.18185-0.18171,0.18185h-0.96369c-0.10897,0-0.18171-0.07274-0.18171-0.18185v-8.07236
					c0-0.10911,0.07274-0.18185,0.18171-0.18185h0.87276c0.10912,0,0.18185,0.07274,0.18185,0.18185v0.65454
					c0,0.09093,0.05441,0.1273,0.12716,0.05455c0.47268-0.56361,1.21814-1.07266,2.29079-1.07266
					C83.68616,38.87439,83.77709,38.87439,83.86802,38.89258z"/>
				<path class="st1" d="M87.97723,46.565v0.81806c0,0.10911-0.07275,0.18185-0.18185,0.18185h-0.3272
					c-1.10902,0-1.79993-0.50905-1.79993-1.67264v-11.3814c0-0.10911,0.07275-0.18171,0.18172-0.18171h0.96368
					c0.10912,0,0.18172,0.0726,0.18172,0.18171v11.21774c0,0.39994,0.14548,0.65454,0.54542,0.65454h0.2546
					C87.90448,46.38315,87.97723,46.45589,87.97723,46.565z"/>
				<path class="st1" d="M89.74079,36.09273c0-0.52738,0.45449-0.98187,0.99992-0.98187c0.50919,0,0.96368,0.45449,0.96368,0.98187
					c0,0.52724-0.45449,0.99992-0.96368,0.99992C90.19528,37.09264,89.74079,36.61996,89.74079,36.09273z M90.04994,47.31032
					v-8.07236c0-0.10911,0.0726-0.18185,0.18171-0.18185h0.96369c0.10897,0,0.18171,0.07274,0.18171,0.18185v8.07236
					c0,0.10911-0.07274,0.18185-0.18171,0.18185h-0.96369C90.12254,47.49218,90.04994,47.41943,90.04994,47.31032z"/>
				<path class="st1" d="M95.28608,47.49218h-0.96369c-0.10911,0-0.18171-0.07274-0.18171-0.18185v-8.07236
					c0-0.10911,0.0726-0.18185,0.18171-0.18185h0.87276c0.10912,0,0.18171,0.07274,0.18171,0.18185v0.59998
					c0,0.09093,0.07275,0.1273,0.14548,0.03637c0.54543-0.61816,1.21815-0.99992,2.19987-0.99992
					c1.87268,0,2.83636,1.23633,2.83636,2.78167v5.65426c0,0.10911-0.07274,0.18185-0.18185,0.18185h-0.96355
					c-0.10911,0-0.18185-0.07274-0.18185-0.18185v-5.43604c0-1.18177-0.63634-1.81812-1.76357-1.81812
					c-0.80002,0-1.47274,0.43631-1.90905,1.19995c-0.07274,0.14534-0.09093,0.23627-0.09093,0.38175v5.67245
					C95.46779,47.41943,95.39505,47.49218,95.28608,47.49218z"/>
			</g>
		</g>
		<g>
			<path class="st0" d="M31.40824,44.24314H19.41322c-0.27094,0-0.45161-0.18063-0.45161-0.45157V30.20516l-4.97786-3.17488v22.1949
				h32.06768V27.03075l-6.3026,4.01958c0.83733,1.28248,1.321,2.82436,1.321,4.52469
				C41.06982,40.45095,37.77403,44.24314,31.40824,44.24314z"/>
			<path class="st2" d="M46.54546,25.28185c-0.15271,0-0.30931,0.04233-0.45415,0.13562l-7.17031,4.57297
				c0.30459,0.3291,0.58167,0.68291,0.82782,1.05989l6.3026-4.01958v22.19443H13.98375v-22.1949l4.97786,3.17488v-1.58787
				l-5.02618-3.20569c-0.14255-0.08919-0.29588-0.12974-0.44537-0.12974c-0.4393,0-0.84506,0.35026-0.84506,0.84456V49.721
				c0,0.46555,0.37737,0.84292,0.84292,0.84292h33.05932c0.46555,0,0.84292-0.37738,0.84292-0.84292V26.1258
				C47.39017,25.6311,46.98404,25.28189,46.54546,25.28185z"/>
			<path class="st3" d="M38.92101,29.99044c-0.66778-0.72139-1.4654-1.32408-2.36586-1.77431
				c-0.27094-0.13547-0.31614-0.3161,0-0.49673c2.25714-1.30923,3.83731-3.79216,3.83731-6.72669
				c0-4.6953-3.20547-8.35202-9.07454-8.35202H19.41322c-0.27094,0-0.45161,0.18063-0.45161,0.45157v15.52502l11.05598,7.05147
				L38.92101,29.99044z"/>
			<path class="st4" d="M30.47075,36.9676c-0.27642,0.17627-0.62999,0.17627-0.90637-0.00004l-0.2667-0.1701l-10.33607-6.5923
				v13.58641c0,0.27094,0.18067,0.45157,0.45161,0.45157h11.99502c6.36579,0,9.66158-3.79219,9.66158-8.66812
				c0-1.70033-0.48366-3.24221-1.321-4.52469l-9.01138,5.74717L30.47075,36.9676z"/>
			<path class="st1" d="M29.29768,36.79746l0.2667,0.1701c0.27639,0.17631,0.62995,0.17631,0.90637,0.00004l0.2667-0.1701
				l9.01138-5.74717c-0.24615-0.37698-0.52323-0.73079-0.82782-1.05989l-8.90342,5.67831l-11.05598-7.05147v1.58787
				L29.29768,36.79746z"/>
		</g>
	</g>
</g>
</svg>
