<?xml version="1.0" encoding="utf-8"?>
<!-- Generator: Adobe Illustrator 28.7.1, SVG Export Plug-In . SVG Version: 9.03 Build 54978)  -->
<svg version="1.1" id="Logo_Berliner_Familienportal_00000167364471685534685460000002073592945238578822_"
	 xmlns="http://www.w3.org/2000/svg" xmlns:xlink="http://www.w3.org/1999/xlink" x="0px" y="0px" viewBox="0 0 151.7 59.5"
	 style="enable-background:new 0 0 151.7 59.5;" xml:space="preserve">
<style type="text/css">
	.st0{fill:none;}
	.st1{fill:#F39300;}
	.st2{fill:#619BD2;}
	.st3{fill:#002856;}
	.st4{fill:none;stroke:#9ACFAE;stroke-width:0.1;stroke-miterlimit:10;}
</style>
<g>
	<g id="Logo_Berliner_Familienportal">
		<g>
			<path class="st0" d="M11.92184,22.02963v25.55036h3.68504v-4.6362c0-0.28124,0.15998-0.48281,0.4399-0.48281l8.65024-0.00242
				v-0.17297c0-1.50608-0.36882-2.82071-1.01139-3.90296l-6.7283-0.00176v-0.23524c0-3.99605,1.8968-7.00821,4.76933-8.59505
				c0.37993-0.21918,0.43418-0.49337,0.05424-0.71255c-2.19707-1.39891-3.71976-3.69281-4.05029-6.65414
				c-0.60626-0.10079-1.25224-0.15426-1.9385-0.15426h-3.87028L11.92184,22.02963z"/>
			<path class="st1" d="M21.78091,28.83803c0.37993,0.21918,0.32569,0.49337-0.05424,0.71255
				c-2.87254,1.58684-4.76933,4.59901-4.76933,8.59505c0,0-0.04004,0.23524,0.22216,0.23524s6.50614,0.00176,6.50614,0.00176
				c-0.61132-1.02987-1.47021-1.84981-2.50196-2.41889c-0.27991-0.1613-0.31986-0.36288-0.03994-0.52418
				c1.83617-1.16719,3.03461-3.18117,3.03461-5.79877c0-3.76455-2.25659-6.75998-6.44772-7.45691
				c0.33053,2.96133,1.85322,5.25522,4.05029,6.65414L21.78091,28.83803z"/>
			<path class="st1" d="M29.04527,10.60638c-7.31336,0-11.31789,4.41949-11.38058,10.20991
				c4.77306,0.6943,7.8657,4.06184,7.8657,8.82451c0,2.37356-0.87518,4.48393-2.44355,5.98603
				c0.91126,0.75039,1.62403,1.68651,2.12506,2.75601l4.35045,0.00123c0.09408,0.00003,0.17033,0.0763,0.17033,0.17038v10.20721
				c0,0.0941,0.07628,0.17038,0.17038,0.17038h6.04673c0.0941,0,0.17038-0.07628,0.17038-0.17038v-37.9849
				c0-0.0941-0.07628-0.17038-0.17038-0.17038C35.94979,10.60638,29.04528,10.60638,29.04527,10.60638z"/>
			<path class="st2" d="M24.69706,42.28571c0.00155,0.05695,0.00453,0.17286-0.13911,0.17286
				c-0.11964,0-8.51124,0.00235-8.51124,0.00235c-0.24286,0-0.43979,0.19722-0.43979,0.44023v4.5085
				c0,0.09421-0.07631,0.17022-0.17037,0.17022h-3.34432c-0.09406,0-0.17037-0.07601-0.17037-0.17022V22.19999
				c0-0.09421,0.07631-0.17022,0.17037-0.17022h3.69995c0.68616,0,1.33212,0.05341,1.93846,0.15408
				c-0.04446-0.39826-0.06897-0.80767-0.06897-1.2297c0-0.04637,0.00235-0.09157,0.00293-0.13794
				c-0.59988-0.08716-1.22221-0.13852-1.87243-0.13852h-5.05203c-0.09406,0-0.17037,0.07631-0.17037,0.17022v27.91382
				c0,0.09391,0.07631,0.17022,0.17037,0.17022h6.04833c0.09421,0,0.17037-0.07631,0.17037-0.17022v-4.7785
				c0-0.09421,0.07631-0.17051,0.17037-0.17051l7.56828-0.00205l1.18127-0.00029c0.09406-0.00029,0.17022-0.07631,0.17022-0.17051
				v-1.35413c0-1.42574-0.29348-2.7429-0.83702-3.90275l-1.52641-0.00029c0.64258,1.08207,1.01149,2.39688,1.01149,3.90304
				L24.69706,42.28571z"/>
			<path class="st3" d="M23.08685,35.62684c1.56836-1.50212,2.44353-3.61248,2.44353-5.98604
				c0-4.76273-3.09271-8.13029-7.86578-8.82458c-0.00055,0.04621-0.00297,0.09154-0.00297,0.13798
				c0,0.42185,0.02454,0.83138,0.06899,1.22969c4.19113,0.69693,6.44772,3.69237,6.44772,7.45691
				c0,2.6176-1.19844,4.63158-3.03461,5.79877c-0.27991,0.1613-0.23997,0.36288,0.03994,0.52418
				c1.03175,0.56907,1.89063,1.38901,2.50196,2.41889l1.52633,0.00022C24.71089,37.31338,23.99812,36.37725,23.08685,35.62684z"/>
			<g>
				<g>
					<path class="st3" d="M52.1745,26.51956h-5.26417c-0.10647,0-0.18261,0.07583-0.18261,0.18261v10.28476
						c0,0.10647,0.07614,0.18261,0.18261,0.18261h1.49092c0.10647,0,0.18261-0.07614,0.18261-0.18261v-4.09267
						c0-0.06097,0.0455-0.09131,0.09131-0.09131h3.49934c0.10647,0,0.18261-0.07614,0.18261-0.18261v-1.39961
						c0-0.10647-0.07614-0.18261-0.18261-0.18261h-3.49934c-0.06097,0-0.09131-0.0455-0.09131-0.09131V28.3757
						c0-0.06097,0.0455-0.09131,0.09131-0.09131h3.49934c0.10647,0,0.18261-0.07614,0.18261-0.18261v-1.39961
						C52.35712,26.59539,52.28098,26.51956,52.1745,26.51956z"/>
					<path class="st3" d="M60.58764,29.9276h-1.35411c-0.10647,0-0.18261,0.07583-0.18261,0.1823v0.33489
						c0,0.07614-0.0455,0.10647-0.10647,0.0455c-0.48686-0.48686-1.1715-0.79111-2.06909-0.79111
						c-1.99295,0-3.48417,1.55189-3.48417,3.8494c0,2.2972,1.49123,3.84909,3.48417,3.84909
						c0.89758,0,1.58222-0.30425,2.06909-0.79111c0.06097-0.06066,0.10647-0.03033,0.10647,0.04581v0.33458
						c0,0.10647,0.07614,0.18261,0.18261,0.18261h1.35411c0.10647,0,0.18261-0.07614,0.18261-0.18261v-6.87704
						c0-0.10647-0.07614-0.1823-0.18261-0.1823V29.9276z M58.95961,34.64394c0,0.09131-0.01517,0.15228-0.07583,0.25875
						c-0.28908,0.50203-0.88242,0.86725-1.62803,0.86725c-1.26281,0-2.02359-0.91306-2.02359-2.22137
						c0-1.30862,0.76078-2.22137,2.02359-2.22137c0.74561,0,1.33895,0.36522,1.62803,0.86725
						c0.06066,0.10647,0.07583,0.16745,0.07583,0.25875v2.19072V34.64394z"/>
					<path class="st3" d="M70.46107,29.69918c-0.91275,0-1.58222,0.5175-2.02328,1.04986
						c-0.06097,0.06097-0.10678,0.06097-0.15228-0.01517c-0.38039-0.63914-1.06503-1.0347-1.97778-1.0347
						c-0.71528,0-1.29345,0.31973-1.7345,0.74561c-0.06097,0.06097-0.10647,0.03033-0.10647-0.04581v-0.28908
						c0-0.10647-0.07614-0.1823-0.18261-0.1823h-1.36928c-0.10647,0-0.18261,0.07583-0.18261,0.1823v6.87704
						c0,0.10647,0.07614,0.18261,0.18261,0.18261h1.44542c0.10647,0,0.18261-0.07614,0.18261-0.18261v-4.64051
						c0-0.15197,0.03033-0.25844,0.12164-0.38008c0.24328-0.35006,0.6085-0.63914,1.09536-0.63914
						c0.73045,0,1.126,0.4717,1.126,1.29314v4.36659c0,0.10647,0.07583,0.18261,0.18261,0.18261h1.44511
						c0.10647,0,0.18261-0.07614,0.18261-0.18261v-4.68601c0-0.12164,0.01517-0.21294,0.09131-0.31942
						c0.22842-0.36522,0.59333-0.65431,1.126-0.65431c0.654,0,1.14086,0.44136,1.14086,1.29314v4.36659
						c0,0.10647,0.07614,0.18261,0.18261,0.18261h1.44542c0.10647,0,0.18261-0.07614,0.18261-0.18261v-4.60987
						c0-1.5977-0.86725-2.67789-2.40398-2.67789L70.46107,29.69918z"/>
					<path class="st3" d="M76.37831,29.9276h-1.46059c-0.10647,0-0.16745,0.07583-0.16745,0.1823v6.87704
						c0,0.10647,0.06097,0.18261,0.16745,0.18261h1.46059c0.10647,0,0.18261-0.07614,0.18261-0.18261V30.1099
						C76.56092,30.00343,76.48478,29.9276,76.37831,29.9276z"/>
					<path class="st3" d="M75.66334,26.39762c-0.60881,0-1.126,0.5175-1.126,1.126c0,0.62367,0.51719,1.14117,1.126,1.14117
						c0.59333,0,1.11053-0.5175,1.11053-1.14117C76.77386,26.93029,76.25668,26.39762,75.66334,26.39762z"/>
					<path class="st3" d="M80.91204,35.58733h-0.13711c-0.34975,0-0.48686-0.19778-0.48686-0.5175v-8.73287
						c0-0.10647-0.07614-0.18261-0.18261-0.18261h-1.44542c-0.10647,0-0.1823,0.07614-0.1823,0.18261v8.94613
						c0,1.50608,0.89758,1.96261,2.17556,1.96261h0.25875c0.10647,0,0.1823-0.07614,0.1823-0.18261v-1.29314
						c0-0.10647-0.07583-0.18261-0.1823-0.18261L80.91204,35.58733z"/>
					<path class="st3" d="M84.22846,29.9276h-1.46059c-0.10647,0-0.16745,0.07583-0.16745,0.1823v6.87704
						c0,0.10647,0.06097,0.18261,0.16745,0.18261h1.46059c0.10647,0,0.18261-0.07614,0.18261-0.18261V30.1099
						C84.41107,30.00343,84.33493,29.9276,84.22846,29.9276z"/>
					<path class="st3" d="M83.51348,26.39762c-0.60881,0-1.126,0.5175-1.126,1.126c0,0.62367,0.51719,1.14117,1.126,1.14117
						c0.59333,0,1.11053-0.5175,1.11053-1.14117C84.62401,26.93029,84.10682,26.39762,83.51348,26.39762z"/>
					<path class="st3" d="M89.44651,29.71434c-1.94745,0-3.52998,1.53673-3.52998,3.81906c0,2.3885,1.6432,3.84909,3.74292,3.84909
						c0.94308,0,1.93228-0.36522,2.75373-1.09536c0.09131-0.09131,0.10647-0.18261,0.03033-0.27392l-0.77595-0.95856
						c-0.07583-0.10647-0.16714-0.12164-0.25844-0.03033c-0.45653,0.45653-1.04986,0.73014-1.74967,0.73014
						c-0.91306,0-1.6432-0.54753-1.85614-1.53642c-0.03064-0.15228,0.03033-0.21325,0.1368-0.21325h4.88378
						c0.09131,0,0.15228-0.06066,0.16745-0.16714c0.01517-0.13711,0.03033-0.30425,0.03033-0.41072
						c0-2.11489-1.49092-3.71259-3.57517-3.71259L89.44651,29.71434z M90.92226,32.69649h-2.90601
						c-0.15228,0-0.18261-0.06097-0.13711-0.18261c0.22842-0.71497,0.80659-1.1715,1.56737-1.1715
						c0.80628,0,1.3538,0.4262,1.58222,1.15634c0.0455,0.1368,0.01517,0.19778-0.10647,0.19778V32.69649z"/>
					<path class="st3" d="M98.02649,29.69918c-0.73045,0-1.29345,0.33489-1.7345,0.76078
						c-0.06097,0.04581-0.10647,0.01517-0.10647-0.06097v-0.28908c0-0.10647-0.07614-0.1823-0.18261-0.1823h-1.36928
						c-0.10647,0-0.18261,0.07583-0.18261,0.1823v6.87704c0,0.10647,0.07614,0.18261,0.18261,0.18261h1.44542
						c0.10647,0,0.18261-0.07614,0.18261-0.18261v-4.64051c0-0.15197,0.03033-0.25844,0.12164-0.38008
						c0.24328-0.35006,0.6085-0.63914,1.09536-0.63914c0.73045,0,1.126,0.4717,1.126,1.29314v4.36659
						c0,0.10647,0.07583,0.18261,0.18261,0.18261h1.44511c0.10647,0,0.18261-0.07614,0.18261-0.18261v-4.60987
						C100.41499,30.79486,99.56321,29.69919,98.02649,29.69918z"/>
					<path class="st3" d="M106.19574,29.71434c-0.88242,0-1.56706,0.28908-2.02359,0.76078
						c-0.07614,0.07614-0.1368,0.06097-0.1368-0.03033V30.1099c0-0.10647-0.07614-0.1823-0.18261-0.1823h-1.36928
						c-0.10647,0-0.18261,0.07583-0.18261,0.1823v9.87435c0,0.10647,0.07614,0.18261,0.18261,0.18261h1.44542
						c0.10647,0,0.18261-0.07614,0.18261-0.18261v-3.22542c0-0.07614,0.0455-0.12164,0.15197-0.03064
						c0.44136,0.41103,1.09536,0.65431,1.93228,0.65431c2.00842,0,3.48417-1.53673,3.48417-3.81875
						C109.67991,31.25108,108.20416,29.71435,106.19574,29.71434z M105.81535,35.76994c-0.74561,0-1.33895-0.36522-1.62803-0.86725
						c-0.06066-0.10647-0.07583-0.19778-0.07583-0.28908v-2.13006c0-0.09131,0.01517-0.18261,0.07583-0.28908
						c0.28908-0.50203,0.88242-0.86725,1.62803-0.86725c1.26281,0,2.02359,0.91275,2.02359,2.22137
						c0,1.30831-0.76078,2.22137-2.02359,2.22137V35.76994z"/>
					<path class="st3" d="M114.5021,29.69918c-2.2062,0-3.78842,1.7345-3.78842,3.83423c0,2.09942,1.58222,3.83392,3.78842,3.83392
						s3.78842-1.7345,3.78842-3.83392C118.29052,31.43368,116.7083,29.69918,114.5021,29.69918z M114.5021,35.67863
						c-1.18667,0-1.94745-0.98889-1.94745-2.14523s0.76078-2.14523,1.94745-2.14523s1.94745,0.98889,1.94745,2.14523
						S115.68877,35.67863,114.5021,35.67863z"/>
					<path class="st3" d="M123.67541,29.71434c-0.07614-0.01517-0.15228-0.01517-0.21294-0.01517
						c-0.79111,0-1.41509,0.38039-1.82581,0.82175c-0.06097,0.06066-0.12164,0.03033-0.12164-0.07614v-0.33489
						c0-0.10647-0.07614-0.1823-0.18261-0.1823h-1.36928c-0.10647,0-0.18261,0.07583-0.18261,0.1823v6.87704
						c0,0.10647,0.07614,0.18261,0.18261,0.18261h1.44542c0.10647,0,0.18261-0.07614,0.18261-0.18261v-4.5947
						c0-0.15228,0.0455-0.27392,0.16714-0.38039c0.33489-0.31942,0.80659-0.54784,1.39992-0.54784
						c0.1368,0,0.30425,0.01548,0.4717,0.04581c0.12164,0.01517,0.19778-0.04581,0.19778-0.16745v-1.43025
						C123.82769,29.80564,123.78188,29.72981,123.67541,29.71434z"/>
					<path class="st3" d="M128.07172,29.9276h-0.69981c-0.06066,0-0.09131-0.03064-0.09131-0.09131v-2.82987
						c0-0.13711-0.09131-0.19778-0.21294-0.15228l-1.44542,0.53267c-0.10647,0.0455-0.15197,0.091-0.15197,0.19778v2.2517
						c0,0.06066-0.03064,0.09131-0.09131,0.09131h-0.69981c-0.10678,0-0.18261,0.07583-0.18261,0.1823v1.20214
						c0,0.10647,0.07583,0.18261,0.18261,0.18261h0.69981c0.06066,0,0.09131,0.0455,0.09131,0.09131v5.40098
						c0,0.10647,0.07583,0.18261,0.18261,0.18261h1.44511c0.10647,0,0.18261-0.07614,0.18261-0.18261v-5.40098
						c0-0.06097,0.03064-0.09131,0.09131-0.09131h0.69981c0.10648,0,0.18262-0.07614,0.18262-0.18261V30.1099
						C128.25433,30.00343,128.17819,29.9276,128.07172,29.9276z"/>
					<path class="st3" d="M136.33289,29.9276h-1.35411c-0.10648,0-0.18262,0.07583-0.18262,0.1823v0.33489
						c0,0.07614-0.0455,0.10647-0.10648,0.0455c-0.48686-0.48686-1.17149-0.79111-2.06909-0.79111
						c-1.99295,0-3.48418,1.55189-3.48418,3.8494c0,2.2972,1.49123,3.84909,3.48418,3.84909
						c0.89758,0,1.58221-0.30425,2.06909-0.79111c0.06097-0.06066,0.10648-0.03033,0.10648,0.04581v0.33458
						c0,0.10647,0.07614,0.18261,0.18262,0.18261h1.35411c0.10648,0,0.18262-0.07614,0.18262-0.18261v-6.87704
						c0-0.10647-0.07614-0.1823-0.18262-0.1823V29.9276z M134.70517,34.64394c0,0.09131-0.01547,0.15228-0.07614,0.25875
						c-0.28908,0.50203-0.88242,0.86725-1.62804,0.86725c-1.26282,0-2.02359-0.91306-2.02359-2.22137
						c0-1.30862,0.76077-2.22137,2.02359-2.22137c0.74561,0,1.33894,0.36522,1.62804,0.86725
						c0.06065,0.10647,0.07614,0.16745,0.07614,0.25875v2.19072V34.64394z"/>
					<path class="st3" d="M140.8663,35.58733h-0.13712c-0.34975,0-0.48686-0.19778-0.48686-0.5175v-8.73287
						c0-0.10647-0.07614-0.18261-0.18262-0.18261h-1.44542c-0.10648,0-0.1823,0.07614-0.1823,0.18261v8.94613
						c0,1.50608,0.89758,1.96261,2.17555,1.96261h0.25874c0.10648,0,0.1823-0.07614,0.1823-0.18261v-1.29314
						c0-0.10647-0.07584-0.18261-0.1823-0.18261L140.8663,35.58733z"/>
				</g>
				<g>
					<path class="st3" d="M51.68764,15.85904c-0.09131-0.04581-0.10647-0.10678,0-0.16745
						c0.76078-0.44136,1.29345-1.27797,1.29345-2.26686c0-1.58253-1.08051-2.8147-3.05828-2.8147H46.88
						c-0.09131,0-0.15228,0.06066-0.15228,0.15197v10.34574c0,0.09131,0.06097,0.15228,0.15228,0.15228h3.07314
						c2.14523,0,3.25606-1.27797,3.25606-2.92117C53.2092,17.22832,52.6007,16.31526,51.68764,15.85904z M47.85372,11.76636
						c0-0.04581,0.03033-0.07614,0.07614-0.07614H49.786c1.33864,0,2.02359,0.69981,2.02359,1.81033
						c0,1.11084-0.68495,1.79548-2.02359,1.79548h-1.85614c-0.04581,0-0.07614-0.03064-0.07614-0.07614
						C47.85372,15.21989,47.85372,11.76636,47.85372,11.76636z M49.84666,20.17982h-1.91681
						c-0.04581,0-0.07614-0.03033-0.07614-0.07614v-3.65131c0-0.04581,0.03033-0.07614,0.07614-0.07614h1.91681
						c1.46059,0,2.19103,0.73014,2.19103,1.90164S51.30724,20.17982,49.84666,20.17982z"/>
					<path class="st3" d="M58.22917,14.0484c-1.94745,0-3.43837,1.44542-3.43837,3.68195s1.49092,3.69712,3.59064,3.69712
						c1.0802,0,2.03875-0.45653,2.75373-1.20214c0.06066-0.06066,0.06066-0.1368,0-0.19778l-0.50203-0.54753
						c-0.07614-0.07614-0.15228-0.04581-0.25875,0.06066c-0.48686,0.50203-1.15634,0.88242-1.99295,0.88242
						c-1.35411,0-2.25201-0.86694-2.41914-2.19072c-0.03064-0.15228,0.03033-0.19778,0.1368-0.19778h5.37065
						c0.09131,0,0.13711-0.04581,0.15228-0.12164c0.01517-0.12195,0.01517-0.24359,0.01517-0.35006
						C61.6372,15.52415,60.17661,14.04839,58.22917,14.0484z M60.31342,17.15218h-4.18398c-0.1368,0-0.16714-0.04581-0.1368-0.16745
						c0.18261-1.12569,1.0802-1.93228,2.23653-1.93228c1.1715,0,2.02359,0.77595,2.22137,1.91712
						c0.03033,0.1368-0.01517,0.18261-0.13711,0.18261H60.31342z"/>
					<path class="st3" d="M63.53822,21.26002h0.80659c0.09131,0,0.15197-0.06097,0.15197-0.15228V16.3914
						c0-0.1368,0.01517-0.24359,0.10647-0.38039c0.35006-0.51719,0.88242-0.89758,1.67384-0.89758
						c0.10647,0,0.24328,0.01517,0.36491,0.03033c0.10647,0.03033,0.16745-0.01517,0.16745-0.12164v-0.80628
						c0-0.09131-0.0455-0.15228-0.1368-0.15228c-0.07614-0.01517-0.15228-0.01517-0.22842-0.01517
						c-0.89758,0-1.52125,0.42589-1.91681,0.89758c-0.06097,0.06097-0.10647,0.03033-0.10647-0.0455v-0.54784
						c0-0.09131-0.06097-0.15228-0.15228-0.15228h-0.73045c-0.091,0-0.15197,0.06097-0.15197,0.15228v6.75509
						c0,0.09131,0.06097,0.15228,0.15197,0.15228V21.26002z"/>
					<path class="st3" d="M69.6845,21.32099h0.27392c0.09131,0,0.15197-0.06097,0.15197-0.15228v-0.68464
						c0-0.09131-0.06066-0.15228-0.15197-0.15228h-0.21325c-0.33458,0-0.45622-0.21294-0.45622-0.54753v-9.38749
						c0-0.09131-0.06097-0.15197-0.15228-0.15197h-0.80628c-0.09131,0-0.15228,0.06066-0.15228,0.15197v9.52429
						c0,0.97372,0.57817,1.39992,1.50639,1.39992L69.6845,21.32099z"/>
					<path class="st3" d="M71.99655,14.20037h0.80659c0.08393,0,0.15197,0.06804,0.15197,0.15197v6.75571
						c0,0.08393-0.06804,0.15197-0.15197,0.15197h-0.80659c-0.08393,0-0.15197-0.06804-0.15197-0.15197v-6.75571
						C71.84458,14.26841,71.91262,14.20037,71.99655,14.20037z"/>
					<path class="st3" d="M72.42275,10.89912c-0.45653,0-0.83692,0.38008-0.83692,0.82144s0.38039,0.83692,0.83692,0.83692
						c0.42589,0,0.80628-0.39556,0.80628-0.83692S72.84865,10.89912,72.42275,10.89912z"/>
					<path class="st3" d="M79.52759,16.55885v4.54889c0,0.09131,0.06066,0.15228,0.15197,0.15228h0.80628
						c0.09131,0,0.15228-0.06097,0.15228-0.15228v-4.7315c0-1.29314-0.80628-2.32784-2.37334-2.32784
						c-0.82175,0-1.38476,0.31942-1.84098,0.83692c-0.06097,0.07583-0.12195,0.0455-0.12195-0.03064v-0.50203
						c0-0.09131-0.06066-0.15228-0.15197-0.15228h-0.73045c-0.09131,0-0.15197,0.06097-0.15197,0.15228v6.75509
						c0,0.09131,0.06066,0.15228,0.15197,0.15228h0.80659c0.09131,0,0.15197-0.06097,0.15197-0.15228v-4.74667
						c0-0.12195,0.01517-0.19778,0.07614-0.31973c0.36522-0.63883,0.92823-1.00406,1.59739-1.00406
						c0.94339,0,1.47606,0.53267,1.47606,1.52156L79.52759,16.55885z"/>
					<path class="st3" d="M85.96265,21.42747c1.0802,0,2.03875-0.45653,2.75373-1.20214c0.06066-0.06066,0.06066-0.1368,0-0.19778
						l-0.50203-0.54753c-0.07614-0.07614-0.15228-0.04581-0.25875,0.06066c-0.48686,0.50203-1.15634,0.88242-1.99295,0.88242
						c-1.35411,0-2.25201-0.86694-2.41914-2.19072c-0.03064-0.15228,0.03033-0.19778,0.1368-0.19778h5.37065
						c0.09131,0,0.13711-0.04581,0.15228-0.12164c0.01517-0.12195,0.01517-0.24359,0.01517-0.35006
						c0-2.03875-1.46059-3.51451-3.40803-3.51451s-3.43837,1.44542-3.43837,3.68195S83.86293,21.42746,85.96265,21.42747z
						 M83.57384,16.98474c0.18261-1.12569,1.0802-1.93228,2.23653-1.93228c1.1715,0,2.02359,0.77595,2.22137,1.91712
						c0.03033,0.1368-0.01517,0.18261-0.13711,0.18261h-4.18398C83.57384,17.15219,83.5435,17.10638,83.57384,16.98474z"/>
					<path class="st3" d="M94.25385,14.06356c-0.07614-0.01517-0.15228-0.01517-0.22842-0.01517
						c-0.89758,0-1.52125,0.42589-1.91681,0.89758c-0.06097,0.06097-0.10647,0.03033-0.10647-0.0455v-0.54784
						c0-0.09131-0.06097-0.15228-0.15228-0.15228h-0.73045c-0.091,0-0.15197,0.06097-0.15197,0.15228v6.75509
						c0,0.09131,0.06097,0.15228,0.15197,0.15228h0.80659c0.09131,0,0.15197-0.06097,0.15197-0.15228v-4.71634
						c0-0.1368,0.01517-0.24359,0.10647-0.38039c0.35006-0.51719,0.88242-0.89758,1.67384-0.89758
						c0.10647,0,0.24328,0.01517,0.36491,0.03033c0.10647,0.03033,0.16745-0.01517,0.16745-0.12164v-0.80628
						c0-0.09131-0.0455-0.15228-0.1368-0.15228L94.25385,14.06356z"/>
				</g>
			</g>
			<line class="st4" x1="48.73239" y1="48.963" x2="48.67852" y2="49.01687"/>
			<rect y="0" class="st0" width="151.6989" height="59.52756"/>
			<g>
				<path class="st3" d="M46.72771,48.83912v-6.32849c0-0.0621,0.0313-0.0929,0.09341-0.0929h0.64173
					c0.04999,0,0.08987,0.02171,0.12118,0.06513l1.78686,2.97793c0.01868,0.0308,0.03383,0.04645,0.04645,0.04645
					s0.02777-0.01565,0.04645-0.04645l1.78686-2.97793c0.0313-0.04342,0.07119-0.06513,0.12118-0.06513h0.64224
					c0.0616,0,0.0929,0.0308,0.0929,0.0929v6.32849c0,0.0621-0.0313,0.0929-0.0929,0.0929h-0.50289
					c-0.0621,0-0.0929-0.0308-0.0929-0.0929v-5.17478c0-0.0308-0.00757-0.04948-0.02323-0.05554s-0.02928,0.00606-0.04191,0.03736
					l-1.83331,2.98702c-0.0313,0.04342-0.06513,0.06513-0.1025,0.06513s-0.07119-0.02171-0.1025-0.06513l-1.83331-2.98702
					c-0.01212-0.0313-0.02626-0.04342-0.04191-0.03736c-0.01515,0.00606-0.02323,0.02474-0.02323,0.05554v5.17478
					c0,0.0621-0.0308,0.0929-0.0929,0.0929h-0.50238c-0.0621,0-0.09341-0.0308-0.09341-0.0929H46.72771z"/>
				<path class="st3" d="M54.34068,48.74117c-0.32263-0.18934-0.57711-0.45441-0.76291-0.79573
					c-0.18631-0.34081-0.27921-0.73211-0.27921-1.17239c0-0.44078,0.0929-0.83158,0.27921-1.1729
					c0.18581-0.34081,0.44028-0.60639,0.76291-0.79573c0.32263-0.18883,0.68263-0.28376,1.07949-0.28376
					c0.60791,0,1.07646,0.19237,1.40515,0.57711c0.01262,0.01262,0.02474,0.01565,0.03736,0.00909
					c0.01262-0.00606,0.01868-0.01818,0.01868-0.03686v-0.36303c0-0.0621,0.0308-0.0929,0.0929-0.0929h0.45593
					c0.0621,0,0.09341,0.0308,0.09341,0.0929v4.13215c0,0.0621-0.0313,0.0929-0.09341,0.0929h-0.45593
					c-0.0621,0-0.0929-0.0308-0.0929-0.0929v-0.36303c0-0.01868-0.00606-0.0313-0.01868-0.03736s-0.02474-0.00303-0.03736,0.00959
					c-0.38474,0.38474-0.85279,0.5766-1.40515,0.5766c-0.39686,0-0.75685-0.09442-1.07949-0.28376V48.74117z M56.30426,48.22465
					c0.22973-0.1237,0.39686-0.29133,0.50238-0.50238c0.02474-0.04948,0.03736-0.10553,0.03736-0.16763v-1.56369
					c0-0.0616-0.01262-0.11764-0.03736-0.16712c-0.11764-0.21105-0.28982-0.37868-0.51652-0.50289
					c-0.2262-0.1237-0.48218-0.18581-0.76746-0.18581c-0.45946,0-0.83006,0.15046-1.11231,0.45139s-0.42311,0.69626-0.42311,1.18653
					s0.14087,0.8856,0.42311,1.18653s0.65284,0.45139,1.11231,0.45139c0.29133,0,0.55186-0.0621,0.78159-0.18631L56.30426,48.22465z
					"/>
				<path class="st3" d="M58.91462,45.60015c0.18328-0.34081,0.43927-0.60639,0.76796-0.79573
					c0.32869-0.18883,0.70081-0.28376,1.11685-0.28376c0.37212,0,0.71192,0.07927,1.0189,0.23731
					c0.30698,0.15854,0.54732,0.38322,0.72151,0.67506c0.00606,0.01212,0.00909,0.02777,0.00909,0.04645
					c0,0.03686-0.01565,0.06513-0.04645,0.08381l-0.40039,0.22317l-0.04645,0.01868c-0.02474,0-0.05251-0.01868-0.08381-0.05604
					c-0.11764-0.19186-0.27921-0.34081-0.4837-0.44634c-0.20499-0.10553-0.43422-0.15854-0.68869-0.15854
					c-0.44684,0-0.80381,0.15046-1.0704,0.45139s-0.39989,0.69324-0.39989,1.17744c0,0.4837,0.1333,0.87652,0.39989,1.17693
					c0.26659,0.30143,0.62356,0.45139,1.0704,0.45139c0.24791,0,0.4731-0.05251,0.67455-0.15804s0.36757-0.25447,0.49784-0.44684
					c0.03736-0.05554,0.08078-0.06816,0.13027-0.03686l0.40039,0.22317c0.04948,0.0313,0.0621,0.07422,0.03736,0.13027
					c-0.14895,0.29789-0.38019,0.5246-0.69374,0.6796c-0.31304,0.15501-0.66193,0.23226-1.04667,0.23226
					c-0.41604,0-0.78816-0.09442-1.11685-0.28376s-0.58468-0.45441-0.76796-0.79573
					c-0.18278-0.34081-0.27416-0.73211-0.27416-1.17239c0-0.44078,0.09139-0.83158,0.27416-1.1729L58.91462,45.60015z"/>
				<path class="st3" d="M64.18684,48.93203h-0.49329c-0.0621,0-0.0929-0.0308-0.0929-0.0929v-6.55165
					c0-0.0621,0.0308-0.09341,0.0929-0.09341h0.49329c0.0621,0,0.0929,0.0313,0.0929,0.09341v2.68004
					c0,0.0313,0.00606,0.04797,0.01868,0.051c0.01262,0.00353,0.02827-0.00757,0.04645-0.03231
					c0.13027-0.14289,0.28881-0.25599,0.47461-0.3398c0.18631-0.08381,0.3913-0.12572,0.61447-0.12572
					c0.45896,0,0.81593,0.1338,1.0704,0.40039c0.25397,0.26659,0.3812,0.60791,0.3812,1.02344v2.89462
					c0,0.0621-0.0308,0.0929-0.0929,0.0929h-0.49329c-0.0621,0-0.0929-0.0308-0.0929-0.0929V46.0566
					c0-0.30395-0.07776-0.5352-0.23276-0.69374c-0.15501-0.15804-0.37868-0.23731-0.67001-0.23731
					c-0.20499,0-0.39231,0.05302-0.56297,0.15854s-0.309,0.2575-0.41402,0.45593c-0.0313,0.0621-0.04696,0.12724-0.04696,0.1954
					v2.90371c0,0.0621-0.0308,0.0929-0.0929,0.0929H64.18684z"/>
				<path class="st3" d="M68.4957,42.9292l0.50238-0.26962c0.01262-0.00606,0.02777-0.00959,0.04645-0.00959
					c0.04342,0,0.06513,0.02525,0.06513,0.07473v1.8424c0,0.0313,0.01565,0.04696,0.04645,0.04696h0.51197
					c0.0621,0,0.09341,0.0308,0.09341,0.0929v0.39989c0,0.0621-0.0313,0.09341-0.09341,0.09341h-0.51197
					c-0.0308,0-0.04645,0.01565-0.04645,0.04645v3.5924c0,0.0621-0.0308,0.0929-0.0929,0.0929h-0.49329
					c-0.0621,0-0.0929-0.0308-0.0929-0.0929v-3.5924c0-0.0308-0.01565-0.04645-0.04645-0.04645h-0.51197
					c-0.0621,0-0.0929-0.0313-0.0929-0.09341v-0.39989c0-0.0621,0.0308-0.0929,0.0929-0.0929h0.51197
					c0.0308,0,0.04645-0.01565,0.04645-0.04696V43.0413C68.43056,42.98526,68.45227,42.94789,68.4957,42.9292z"/>
				<path class="st3" d="M73.42813,42.41773h3.17333c0.0621,0,0.0929,0.0308,0.0929,0.0929v0.47461
					c0,0.0621-0.0308,0.0929-0.0929,0.0929h-2.5316c-0.0308,0-0.04645,0.01565-0.04645,0.04645v2.11252
					c0,0.0313,0.01565,0.04696,0.04645,0.04696h2.5316c0.0621,0,0.0929,0.0308,0.0929,0.0929v0.47461
					c0,0.0621-0.0308,0.0929-0.0929,0.0929h-2.5316c-0.0308,0-0.04645,0.01565-0.04645,0.04645v2.2337
					c0,0.0313,0.01565,0.04645,0.04645,0.04645h2.5316c0.0621,0,0.0929,0.0313,0.0929,0.09341v0.47461
					c0,0.0621-0.0308,0.0929-0.0929,0.0929h-3.17333c-0.0621,0-0.09341-0.0308-0.09341-0.0929V42.5106
					c0-0.0621,0.0313-0.0929,0.09341-0.0929V42.41773z"/>
				<path class="st3" d="M79.16991,48.45741v0.41857c0,0.0621-0.0308,0.09341-0.0929,0.09341h-0.16763
					c-0.29133,0-0.51803-0.07018-0.6791-0.20954c-0.16157-0.13935-0.24185-0.35495-0.24185-0.64678v-5.8256
					c0-0.0621,0.0308-0.09341,0.0929-0.09341h0.49329c0.0616,0,0.0929,0.0313,0.0929,0.09341v5.74179
					c0,0.22317,0.0929,0.33526,0.27921,0.33526H79.077C79.13911,48.36452,79.16991,48.39532,79.16991,48.45741z"/>
				<path class="st3" d="M80.49175,42.9292l0.50238-0.26962c0.01262-0.00606,0.02777-0.00959,0.04645-0.00959
					c0.04342,0,0.06513,0.02525,0.06513,0.07473v1.8424c0,0.0313,0.01565,0.04696,0.04645,0.04696h0.51197
					c0.0621,0,0.09341,0.0308,0.09341,0.0929v0.39989c0,0.0621-0.0313,0.09341-0.09341,0.09341h-0.51197
					c-0.0308,0-0.04645,0.01565-0.04645,0.04645v3.5924c0,0.0621-0.0308,0.0929-0.0929,0.0929h-0.49329
					c-0.0621,0-0.0929-0.0308-0.0929-0.0929v-3.5924c0-0.0308-0.01565-0.04645-0.04645-0.04645h-0.51197
					c-0.0621,0-0.0929-0.0313-0.0929-0.09341v-0.39989c0-0.0621,0.0308-0.0929,0.0929-0.0929h0.51197
					c0.0308,0,0.04645-0.01565,0.04645-0.04696V43.0413C80.42661,42.98526,80.44833,42.94789,80.49175,42.9292z"/>
				<path class="st3" d="M83.43737,48.75531c-0.33223-0.18631-0.59124-0.45139-0.77705-0.79573
					c-0.18631-0.34435-0.27921-0.73969-0.27921-1.18653s0.09139-0.84067,0.27416-1.18198
					c0.18328-0.34132,0.43422-0.60488,0.75382-0.79119c0.31961-0.18581,0.67809-0.27921,1.07494-0.27921
					c0.3908,0,0.74625,0.09341,1.06586,0.27921c0.3191,0.18631,0.56903,0.4423,0.74877,0.76796
					c0.18025,0.32566,0.27012,0.69324,0.27012,1.10271c0,0.0929-0.00303,0.1646-0.00909,0.21408
					c-0.01262,0.04948-0.04393,0.07422-0.09341,0.07422h-3.28492c-0.07473,0-0.1025,0.04039-0.08381,0.12118
					c0.04948,0.40948,0.206,0.73514,0.47007,0.97699c0.26356,0.24235,0.60033,0.36303,1.00981,0.36303
					c0.46502,0,0.87147-0.17975,1.21884-0.53974c0.06816-0.06816,0.12118-0.08028,0.15804-0.03736l0.30749,0.33526
					c0.04342,0.03736,0.04342,0.07776,0,0.12118c-0.22367,0.23579-0.47966,0.41705-0.76796,0.54429s-0.59427,0.19085-0.9164,0.19085
					C84.1493,49.03452,83.76911,48.94111,83.43737,48.75531z M85.84274,46.30753c-0.0621-0.35343-0.21559-0.63719-0.46047-0.85127
					c-0.24538-0.21408-0.54429-0.32112-0.89823-0.32112c-0.35343,0-0.65587,0.11007-0.90732,0.33021
					s-0.40493,0.5044-0.46047,0.85178l-0.00959,0.04645c0,0.03686,0.0313,0.05554,0.09341,0.05554h2.55886
					c0.07473,0,0.1025-0.03686,0.08381-0.11158L85.84274,46.30753z"/>
				<path class="st3" d="M89.64923,44.53026c0.05604,0,0.08381,0.0308,0.08381,0.0929v0.49329
					c0,0.05554-0.02171,0.08381-0.06513,0.08381s-0.08836-0.00454-0.13481-0.01414
					c-0.04645-0.00909-0.08836-0.01414-0.12572-0.01414c-0.43422,0-0.77553,0.18328-1.02395,0.54934
					c-0.04342,0.0621-0.06513,0.13935-0.06513,0.23276v2.88503c0,0.0621-0.0308,0.0929-0.0929,0.0929H87.7321
					c-0.0621,0-0.0929-0.0308-0.0929-0.0929v-4.13215c0-0.0621,0.0308-0.0929,0.0929-0.0929h0.44684
					c0.0621,0,0.0929,0.0308,0.0929,0.0929v0.33475c0,0.02525,0.00606,0.04039,0.01868,0.04696
					c0.01262,0.00606,0.02777,0,0.04645-0.01868c0.30395-0.36606,0.69475-0.54934,1.1729-0.54934
					c0.0616,0,0.10855,0.00353,0.13935,0.00959L89.64923,44.53026z"/>
				<path class="st3" d="M91.18464,48.93203h-0.49329c-0.0621,0-0.0929-0.0308-0.0929-0.0929v-4.13215
					c0-0.0621,0.0308-0.0929,0.0929-0.0929h0.44684c0.0621,0,0.0929,0.0308,0.0929,0.0929v0.30698
					c0,0.02474,0.00757,0.04039,0.02323,0.04645c0.01565,0.00656,0.03282-0.00303,0.0515-0.02777
					c0.14895-0.16763,0.31304-0.29436,0.49329-0.38171c0.17975-0.08684,0.3908-0.13027,0.63265-0.13027
					c0.45896,0,0.81593,0.1338,1.0704,0.40039c0.25397,0.26659,0.3812,0.60791,0.3812,1.02344v2.89462
					c0,0.0621-0.0308,0.0929-0.0929,0.0929h-0.49329c-0.0621,0-0.0929-0.0308-0.0929-0.0929v-2.78253
					c0-0.30395-0.07776-0.5352-0.23276-0.69374c-0.15501-0.15804-0.37868-0.23731-0.67001-0.23731
					c-0.20499,0-0.3908,0.05302-0.55843,0.15854s-0.30698,0.2575-0.41857,0.45593c-0.0313,0.0621-0.04696,0.12724-0.04696,0.1954
					v2.90371c0,0.0621-0.0308,0.0929-0.0929,0.0929L91.18464,48.93203z"/>
				<path class="st3" d="M95.47937,48.75531c-0.25094-0.18631-0.42665-0.43422-0.52561-0.74474l-0.00909-0.03686
					c0-0.03736,0.02121-0.0621,0.06513-0.07473l0.44634-0.15804l0.03736-0.00959c0.03736,0,0.06513,0.02525,0.08381,0.07473
					c0.05604,0.19843,0.16308,0.35343,0.32112,0.46502c0.15804,0.11209,0.32718,0.16763,0.50693,0.16763
					c0.26053,0,0.45946-0.06362,0.59579-0.19085c0.13632-0.12673,0.20499-0.28982,0.20499-0.48824
					c0-0.19893-0.06715-0.35394-0.20045-0.46552s-0.31809-0.18934-0.55338-0.23276l-0.37262-0.07422
					c-0.31607-0.0621-0.56751-0.20348-0.75382-0.42362c-0.18581-0.22014-0.27921-0.48521-0.27921-0.79573
					c0-0.22923,0.05907-0.44028,0.17722-0.63265c0.11764-0.19237,0.28376-0.34283,0.49784-0.45139s0.45441-0.16308,0.72101-0.16308
					c0.34132,0,0.63113,0.08836,0.87046,0.26558c0.23832,0.17672,0.40443,0.42967,0.49784,0.75837l0.00909,0.03686
					c0,0.03736-0.02474,0.06564-0.07422,0.08381l-0.43775,0.11209l-0.03686,0.00909c-0.03736,0-0.0621-0.02474-0.07473-0.07422
					c-0.04948-0.18631-0.13784-0.33223-0.26508-0.43775s-0.29032-0.15804-0.48875-0.15804
					c-0.21711,0-0.39231,0.05907-0.52561,0.17672c-0.1338,0.11815-0.20045,0.2671-0.20045,0.44684
					c0,0.18581,0.05302,0.32869,0.15854,0.42816c0.10553,0.09896,0.26356,0.17066,0.47461,0.21408l0.36303,0.07422
					c0.34737,0.06816,0.6281,0.21257,0.84218,0.4327s0.32112,0.51046,0.32112,0.87046c0,0.37212-0.13229,0.67758-0.39585,0.9164
					s-0.62204,0.35848-1.07494,0.35848c-0.36606,0-0.67455-0.09341-0.926-0.27921L95.47937,48.75531z"/>
				<path class="st3" d="M99.75138,48.75531c-0.33223-0.18631-0.59124-0.45139-0.77705-0.79573
					c-0.18631-0.34435-0.27921-0.73969-0.27921-1.18653s0.09139-0.84067,0.27416-1.18198
					c0.18328-0.34132,0.43422-0.60488,0.75382-0.79119c0.31961-0.18581,0.67809-0.27921,1.07494-0.27921
					c0.3908,0,0.74625,0.09341,1.06586,0.27921c0.3191,0.18631,0.56903,0.4423,0.74877,0.76796
					c0.18025,0.32566,0.27012,0.69324,0.27012,1.10271c0,0.0929-0.00303,0.1646-0.00909,0.21408
					c-0.01262,0.04948-0.04393,0.07422-0.09341,0.07422h-3.28492c-0.07473,0-0.1025,0.04039-0.08381,0.12118
					c0.04948,0.40948,0.206,0.73514,0.47007,0.97699c0.26356,0.24235,0.60033,0.36303,1.00981,0.36303
					c0.46502,0,0.87147-0.17975,1.21884-0.53974c0.06816-0.06816,0.12118-0.08028,0.15804-0.03736l0.30749,0.33526
					c0.04342,0.03736,0.04342,0.07776,0,0.12118c-0.22367,0.23579-0.47966,0.41705-0.76796,0.54429s-0.59427,0.19085-0.9164,0.19085
					C100.46331,49.03452,100.08312,48.94111,99.75138,48.75531z M102.15675,46.30753
					c-0.0621-0.35343-0.21559-0.63719-0.46047-0.85127c-0.24538-0.21408-0.54429-0.32112-0.89823-0.32112
					c-0.35343,0-0.65587,0.11007-0.90732,0.33021s-0.40493,0.5044-0.46047,0.85178l-0.00959,0.04645
					c0,0.03686,0.0313,0.05554,0.09341,0.05554h2.55886c0.07473,0,0.1025-0.03686,0.08381-0.11158L102.15675,46.30753z"/>
				<path class="st3" d="M103.94866,43.45532c-0.1025-0.1025-0.154-0.22165-0.154-0.35848c0-0.13632,0.0515-0.25447,0.154-0.35343
					c0.10199-0.09947,0.22165-0.14895,0.35798-0.14895c0.13027,0,0.24538,0.04948,0.34435,0.14895
					c0.09947,0.09896,0.14895,0.21711,0.14895,0.35343c0,0.13683-0.04948,0.25599-0.14895,0.35848
					c-0.09896,0.1025-0.21408,0.15349-0.34435,0.15349C104.17032,43.60881,104.05065,43.55781,103.94866,43.45532z
					 M103.9532,48.83912v-4.13215c0-0.0621,0.0308-0.0929,0.0929-0.0929h0.49329c0.0621,0,0.0929,0.0308,0.0929,0.0929v4.13215
					c0,0.0621-0.0308,0.0929-0.0929,0.0929h-0.49329C103.984,48.93202,103.9532,48.90122,103.9532,48.83912z"/>
				<path class="st3" d="M106.63324,48.93203h-0.49329c-0.0621,0-0.0929-0.0308-0.0929-0.0929v-4.13215
					c0-0.0621,0.0308-0.0929,0.0929-0.0929h0.44684c0.0621,0,0.0929,0.0308,0.0929,0.0929v0.30698
					c0,0.02474,0.00757,0.04039,0.02323,0.04645c0.01565,0.00656,0.03282-0.00303,0.0515-0.02777
					c0.14895-0.16763,0.31304-0.29436,0.49329-0.38171c0.17975-0.08684,0.3908-0.13027,0.63265-0.13027
					c0.45896,0,0.81593,0.1338,1.0704,0.40039c0.25397,0.26659,0.3812,0.60791,0.3812,1.02344v2.89462
					c0,0.0621-0.0308,0.0929-0.0929,0.0929h-0.49329c-0.0621,0-0.0929-0.0308-0.0929-0.0929v-2.78253
					c0-0.30395-0.07776-0.5352-0.23276-0.69374c-0.15501-0.15804-0.37868-0.23731-0.67001-0.23731
					c-0.20499,0-0.3908,0.05302-0.55843,0.15854s-0.30698,0.2575-0.41857,0.45593c-0.0313,0.0621-0.04696,0.12724-0.04696,0.1954
					v2.90371c0,0.0621-0.0308,0.0929-0.0929,0.0929L106.63324,48.93203z"/>
				<path class="st3" d="M114.23661,48.45741v0.41857c0,0.0621-0.0308,0.09341-0.0929,0.09341h-0.16763
					c-0.29133,0-0.51803-0.07018-0.6791-0.20954c-0.16157-0.13935-0.24185-0.35495-0.24185-0.64678v-5.8256
					c0-0.0621,0.0308-0.09341,0.0929-0.09341h0.49329c0.0616,0,0.0929,0.0313,0.0929,0.09341v5.74179
					c0,0.22317,0.0929,0.33526,0.27921,0.33526h0.13027C114.20581,48.36452,114.23661,48.39532,114.23661,48.45741z"/>
				<path class="st3" d="M115.96339,48.75531c-0.33223-0.18631-0.59124-0.45139-0.77705-0.79573
					c-0.18631-0.34435-0.27921-0.73969-0.27921-1.18653s0.09139-0.84067,0.27416-1.18198
					c0.18328-0.34132,0.43422-0.60488,0.75382-0.79119c0.31961-0.18581,0.67809-0.27921,1.07494-0.27921
					c0.3908,0,0.74625,0.09341,1.06586,0.27921c0.3191,0.18631,0.56903,0.4423,0.74877,0.76796
					c0.18025,0.32566,0.27012,0.69324,0.27012,1.10271c0,0.0929-0.00303,0.1646-0.00909,0.21408
					c-0.01262,0.04948-0.04393,0.07422-0.09341,0.07422h-3.28492c-0.07473,0-0.1025,0.04039-0.08381,0.12118
					c0.04948,0.40948,0.206,0.73514,0.47007,0.97699c0.26356,0.24235,0.60033,0.36303,1.00981,0.36303
					c0.46502,0,0.87147-0.17975,1.21884-0.53974c0.06816-0.06816,0.12118-0.08028,0.15804-0.03736l0.30749,0.33526
					c0.04342,0.03736,0.04342,0.07776,0,0.12118c-0.22367,0.23579-0.47966,0.41705-0.76796,0.54429s-0.59427,0.19085-0.9164,0.19085
					C116.67532,49.03452,116.29513,48.94111,115.96339,48.75531z M118.36876,46.30753
					c-0.0621-0.35343-0.21559-0.63719-0.46047-0.85127c-0.24538-0.21408-0.54429-0.32112-0.89823-0.32112
					c-0.35343,0-0.65587,0.11007-0.90732,0.33021s-0.40493,0.5044-0.46047,0.85178l-0.00959,0.04645
					c0,0.03686,0.0313,0.05554,0.09341,0.05554h2.55886c0.07473,0,0.1025-0.03686,0.08381-0.11158L118.36876,46.30753z"/>
				<path class="st3" d="M120.16067,43.45532c-0.1025-0.1025-0.154-0.22165-0.154-0.35848c0-0.13632,0.0515-0.25447,0.154-0.35343
					c0.10199-0.09947,0.22165-0.14895,0.35798-0.14895c0.13027,0,0.24538,0.04948,0.34435,0.14895
					c0.09947,0.09896,0.14895,0.21711,0.14895,0.35343c0,0.13683-0.04948,0.25599-0.14895,0.35848
					c-0.09896,0.1025-0.21408,0.15349-0.34435,0.15349C120.38232,43.60881,120.26266,43.55781,120.16067,43.45532z
					 M120.16521,48.83912v-4.13215c0-0.0621,0.0308-0.0929,0.0929-0.0929h0.49329c0.0621,0,0.0929,0.0308,0.0929,0.0929v4.13215
					c0,0.0621-0.0308,0.0929-0.0929,0.0929h-0.49329C120.19601,48.93202,120.16521,48.90122,120.16521,48.83912z"/>
				<path class="st3" d="M122.22624,45.60015c0.18328-0.34081,0.43927-0.60639,0.76796-0.79573
					c0.32869-0.18883,0.70081-0.28376,1.11685-0.28376c0.37212,0,0.71192,0.07927,1.0189,0.23731
					c0.30698,0.15854,0.54732,0.38322,0.72151,0.67506c0.00606,0.01212,0.00909,0.02777,0.00909,0.04645
					c0,0.03686-0.01565,0.06513-0.04645,0.08381l-0.40039,0.22317l-0.04645,0.01868c-0.02474,0-0.05251-0.01868-0.08381-0.05604
					c-0.11764-0.19186-0.27921-0.34081-0.4837-0.44634c-0.20499-0.10553-0.43422-0.15854-0.68869-0.15854
					c-0.44684,0-0.80381,0.15046-1.0704,0.45139s-0.39989,0.69324-0.39989,1.17744c0,0.4837,0.1333,0.87652,0.39989,1.17693
					c0.26659,0.30143,0.62356,0.45139,1.0704,0.45139c0.24791,0,0.4731-0.05251,0.67455-0.15804s0.36757-0.25447,0.49784-0.44684
					c0.03736-0.05554,0.08078-0.06816,0.13027-0.03686l0.40039,0.22317c0.04948,0.0313,0.0621,0.07422,0.03736,0.13027
					c-0.14895,0.29789-0.38019,0.5246-0.69374,0.6796c-0.31304,0.15501-0.66193,0.23226-1.04667,0.23226
					c-0.41604,0-0.78816-0.09442-1.11685-0.28376s-0.58468-0.45441-0.76796-0.79573
					c-0.18278-0.34081-0.27416-0.73211-0.27416-1.17239c0-0.44078,0.09139-0.83158,0.27416-1.1729L122.22624,45.60015z"/>
				<path class="st3" d="M127.49846,48.93203h-0.49329c-0.0621,0-0.0929-0.0308-0.0929-0.0929v-6.55165
					c0-0.0621,0.0308-0.09341,0.0929-0.09341h0.49329c0.0621,0,0.0929,0.0313,0.0929,0.09341v2.68004
					c0,0.0313,0.00606,0.04797,0.01868,0.051c0.01262,0.00353,0.02827-0.00757,0.04645-0.03231
					c0.13027-0.14289,0.28881-0.25599,0.47462-0.3398c0.18631-0.08381,0.3913-0.12572,0.61447-0.12572
					c0.45895,0,0.81593,0.1338,1.0704,0.40039c0.25397,0.26659,0.3812,0.60791,0.3812,1.02344v2.89462
					c0,0.0621-0.03081,0.0929-0.0929,0.0929h-0.49329c-0.0621,0-0.0929-0.0308-0.0929-0.0929V46.0566
					c0-0.30395-0.07776-0.5352-0.23276-0.69374c-0.15501-0.15804-0.37868-0.23731-0.67001-0.23731
					c-0.20499,0-0.3923,0.05302-0.56297,0.15854s-0.309,0.2575-0.41402,0.45593c-0.0313,0.0621-0.04696,0.12724-0.04696,0.1954
					v2.90371c0,0.0621-0.0308,0.0929-0.0929,0.0929H127.49846z"/>
				<path class="st3" d="M131.80733,42.9292l0.50238-0.26962c0.01262-0.00606,0.02777-0.00959,0.04645-0.00959
					c0.04343,0,0.06512,0.02525,0.06512,0.07473v1.8424c0,0.0313,0.01566,0.04696,0.04645,0.04696h0.51196
					c0.0621,0,0.09341,0.0308,0.09341,0.0929v0.39989c0,0.0621-0.0313,0.09341-0.09341,0.09341h-0.51196
					c-0.03081,0-0.04645,0.01565-0.04645,0.04645v3.5924c0,0.0621-0.03081,0.0929-0.0929,0.0929h-0.49329
					c-0.0621,0-0.0929-0.0308-0.0929-0.0929v-3.5924c0-0.0308-0.01566-0.04645-0.04645-0.04645h-0.51196
					c-0.0621,0-0.0929-0.0313-0.0929-0.09341v-0.39989c0-0.0621,0.03081-0.0929,0.0929-0.0929h0.51196
					c0.03081,0,0.04645-0.01565,0.04645-0.04696V43.0413C131.7422,42.98526,131.76392,42.94789,131.80733,42.9292z"/>
				<path class="st3" d="M134.75294,48.75531c-0.33223-0.18631-0.59125-0.45139-0.77705-0.79573
					c-0.18631-0.34435-0.27921-0.73969-0.27921-1.18653s0.09138-0.84067,0.27415-1.18198
					c0.18327-0.34132,0.43422-0.60488,0.75381-0.79119c0.31961-0.18581,0.67809-0.27921,1.07494-0.27921
					c0.39079,0,0.74625,0.09341,1.06586,0.27921c0.31911,0.18631,0.56903,0.4423,0.74876,0.76796
					c0.18025,0.32566,0.27013,0.69324,0.27013,1.10271c0,0.0929-0.00304,0.1646-0.00909,0.21408
					c-0.01262,0.04948-0.04393,0.07422-0.09341,0.07422h-3.28493c-0.07474,0-0.10249,0.04039-0.08382,0.12118
					c0.04948,0.40948,0.20599,0.73514,0.47008,0.97699c0.26357,0.24235,0.60033,0.36303,1.00981,0.36303
					c0.46503,0,0.87148-0.17975,1.21884-0.53974c0.06816-0.06816,0.12119-0.08028,0.15804-0.03736l0.3075,0.33526
					c0.04343,0.03736,0.04343,0.07776,0,0.12118c-0.22366,0.23579-0.47966,0.41705-0.76796,0.54429s-0.59427,0.19085-0.9164,0.19085
					c-0.42816,0-0.80835-0.09341-1.14008-0.27921L134.75294,48.75531z M137.15831,46.30753
					c-0.0621-0.35343-0.21559-0.63719-0.46046-0.85127c-0.24538-0.21408-0.5443-0.32112-0.89822-0.32112
					c-0.35342,0-0.65587,0.11007-0.90732,0.33021s-0.40492,0.5044-0.46046,0.85178l-0.00958,0.04645
					c0,0.03686,0.0313,0.05554,0.09341,0.05554h2.55885c0.07474,0,0.10249-0.03686,0.08382-0.11158L137.15831,46.30753z"/>
				<path class="st3" d="M140.96478,44.53026c0.05605,0,0.08382,0.0308,0.08382,0.0929v0.49329
					c0,0.05554-0.02171,0.08381-0.06512,0.08381s-0.08836-0.00454-0.13481-0.01414
					c-0.04645-0.00909-0.08836-0.01414-0.12572-0.01414c-0.43422,0-0.77553,0.18328-1.02396,0.54934
					c-0.04343,0.0621-0.06512,0.13935-0.06512,0.23276v2.88503c0,0.0621-0.03081,0.0929-0.0929,0.0929h-0.49329
					c-0.0621,0-0.0929-0.0308-0.0929-0.0929v-4.13215c0-0.0621,0.03081-0.0929,0.0929-0.0929h0.44684
					c0.0621,0,0.0929,0.0308,0.0929,0.0929v0.33475c0,0.02525,0.00606,0.04039,0.01868,0.04696
					c0.01262,0.00606,0.02777,0,0.04645-0.01868c0.30396-0.36606,0.69475-0.54934,1.1729-0.54934
					c0.0616,0,0.10855,0.00353,0.13934,0.00959V44.53026z"/>
			</g>
		</g>
	</g>
</g>
</svg>
